<?xml version="1.0" standalone="no"?><!DOCTYPE svg PUBLIC "-//W3C//DTD SVG 1.1//EN" "http://www.w3.org/Graphics/SVG/1.1/DTD/svg11.dtd"><svg t="1584022564242" class="icon" viewBox="0 0 1024 1024" version="1.1" xmlns="http://www.w3.org/2000/svg" p-id="10343" xmlns:xlink="http://www.w3.org/1999/xlink" width="200" height="200"><defs><style type="text/css"></style></defs><path d="M869.5 326.6l-53.1-14.4v0.4c0 58.6-75.3 167.9-119.1 226.4 11.8 9.1 19.4 23.3 19.4 39.4 0 27.5-22.3 49.8-49.8 49.8S617 606 617 578.5c0-4.3 0.6-8.4 1.6-12.4-3-1.7-6.1-3.4-9.1-5l15-29.6c3.5 1.8 6.9 3.7 10.3 5.7-43.9-59-117.6-166.5-117.6-224.5 0-3.8 0.3-7.5 0.6-11.3l-133.5 44.5L155 283.4c-10.3-2.1-19.9 5.8-19.9 16.3v481.1c0 7.9 5.6 14.7 13.4 16.3l235.9 63.8 249.2-83.1 229.3 62.5c10.3 2.1 19.9-5.8 19.9-16.3V342.9c0-8-5.6-14.8-13.3-16.3zM284.7 445.5c18.4 0 33.2 14.9 33.2 33.2 0 18.4-14.9 33.2-33.2 33.2s-33.2-14.9-33.2-33.2c0-18.3 14.9-33.2 33.2-33.2z m-26.1 96.2c0-2.3 0-4.5 0.1-6.8l33.2 1.3c-0.1 1.8-0.1 3.7-0.1 5.5 0 8 0.7 16 2 23.7l-32.7 5.7c-1.6-9.5-2.5-19.4-2.5-29.4z m12.9 64.6l30.6-12.9c3.8 9 8.6 17.4 14.3 25l-26.6 19.9c-7.3-9.8-13.5-20.5-18.3-32z m74.4 78.2c-10.7-5.5-21.2-12.3-30.4-19.7l20.9-25.9c7.5 6 16 11.6 24.7 16.1l-15.2 29.5z m60 16c-8.2 0-16.7-1-25.4-3.1L388 665c9.5 2.2 18.4 2.8 26.5 1.6l4.8 32.9c-4.4 0.7-8.9 1-13.4 1z m51.1-16.8l-20.4-26.2c6.1-4.7 11.2-11.3 15.7-20l29.6 15.2c-6.8 13.1-14.9 23.3-24.9 31z m42.7-83.1c-1.6 6.1-3.3 12.3-5 18.4l-31.9-9.3c1.7-5.8 3.3-11.7 4.8-17.6 1.3-4.7 2.5-9.5 3.8-14.1l32 9c-1.3 4.5-2.5 9-3.7 13.6z m13.8-40.8l-29.2-15.9c8.1-14.8 18.5-24.5 31.9-29.6l11.9 31c-5.8 2.2-10.4 6.8-14.6 14.5z m68-10.6c-10.1-3.4-19.6-5.5-28.3-6.3l3-33.1c11.2 1 23.3 3.7 35.8 7.9l-10.5 31.5z" fill="#F4513B" p-id="10344"></path><path d="M634.9 537.1c18.6 25 32 41.4 32 41.4s12.6-15.5 30.5-39.4c43.7-58.5 119.1-167.8 119.1-226.4v-0.4c-0.2-82.4-67.1-149.1-149.5-149.1-78.8 0-143.2 61-149 138.3-0.3 3.7-0.6 7.5-0.6 11.3-0.1 57.8 73.6 165.3 117.5 224.3z m31.9-311.7c45.9 0 83.1 37.2 83.1 83.1 0 45.9-37.2 83.1-83.1 83.1s-83.1-37.2-83.1-83.1c0.1-45.9 37.3-83.1 83.1-83.1z" fill="#FFCF48" p-id="10345"></path></svg>