<?xml version="1.0" standalone="no"?><!DOCTYPE svg PUBLIC "-//W3C//DTD SVG 1.1//EN" "http://www.w3.org/Graphics/SVG/1.1/DTD/svg11.dtd"><svg t="1584022471194" class="icon" viewBox="0 0 1024 1024" version="1.1" xmlns="http://www.w3.org/2000/svg" p-id="9370" xmlns:xlink="http://www.w3.org/1999/xlink" width="200" height="200"><defs><style type="text/css"></style></defs><path d="M786.11 960H237.89c-66 0-120-54-120-120V352.62c0-66 54-120 120-120h548.23c66 0 120 54 120 120V840c-0.01 66-54.01 120-120.01 120z" fill="#F5E5E5" p-id="9371"></path><path d="M267.17 237.19h111.06v721.45H267.17z" fill="#D58F90" p-id="9372"></path><path d="M375.89 626h528v111.06h-528z" fill="#D58F90" p-id="9373"></path><path d="M584.36 683.97h111.06V960H584.36z" fill="#D58F90" p-id="9374"></path><path d="M845.06 284.35c13.78-22.11 21.88-48.14 21.88-76.11C866.94 128.58 802.36 64 722.7 64s-144.24 64.58-144.24 144.24c0 28.02 8.12 54.09 21.95 76.23l121.72 251.09 0.01 3.35 0.81-1.66 0.32 0.65v-1.32l121.98-252.21-0.19-0.02z" fill="#C53938" p-id="9375"></path><path d="M773.57 137.43c-29.44-9.52-50.87 17.32-50.87 17.32s-21.43-26.84-50.87-17.32c-29.44 9.52-56.06 46.11-26.19 97.19s77.06 61.26 77.06 61.26 47.19-10.17 77.06-61.26c29.87-51.08 3.24-87.67-26.19-97.19z" fill="#F5E5E5" p-id="9376"></path></svg>