<?xml version="1.0" standalone="no"?><!DOCTYPE svg PUBLIC "-//W3C//DTD SVG 1.1//EN" "http://www.w3.org/Graphics/SVG/1.1/DTD/svg11.dtd"><svg t="1584022497631" class="icon" viewBox="0 0 1024 1024" version="1.1" xmlns="http://www.w3.org/2000/svg" p-id="9667" xmlns:xlink="http://www.w3.org/1999/xlink" width="200" height="200"><defs><style type="text/css"></style></defs><path d="M870.6 892.4c-0.2 0-0.2 0.2-0.4 0.2 0.2 0 0.4-0.2 0.4-0.2zM227.8 905h525.2l-418.4-218z" fill="#FAD996" p-id="9668"></path><path d="M512 905h241L512 779.4z" fill="#F7C872" p-id="9669"></path><path d="M163 896.4l116.6-238-160.6-83.6v250.2c0 31.2 17.8 58.2 44 71.4M544 119H313.4l183.8 95.8z" fill="#FAD996" p-id="9670"></path><path d="M512 184.6l32-65.6h-32z" fill="#F7C872" p-id="9671"></path><path d="M176.6 122.2c-33.2 9.6-57.6 40.4-57.6 76.8v301.4l189.6 98.8L468 274 176.6 122.2" fill="#FAD996" p-id="9672"></path><path d="M825 119h-212L552 243.4l353 183.8V199c0-44.2-35.8-80-80-80z" fill="#F7C872" p-id="9673"></path><path d="M363.6 627.8l506 263.6c21.4-14.4 35.4-38.8 35.4-66.4V501.6l-382-199-159.4 325.2z" fill="#FAD996" p-id="9674"></path><path d="M512 325v380l357.6 186.2c21.4-14.4 35.4-38.8 35.4-66.4V501.6l-382-199-11 22.4z" fill="#F7C872" p-id="9675"></path><path d="M512 446c-130.6 0 0 182 0 182s130.6-182 0-182z m0 76.2c-15.4 0-27.8-12.4-27.8-27.8s12.4-27.8 27.8-27.8 27.8 12.4 27.8 27.8-12.4 27.8-27.8 27.8z" fill="#8CD5CA" p-id="9676"></path><path d="M512 446v20.6c15.4 0 27.8 12.4 27.8 27.8s-12.4 27.8-27.8 27.8V628c0.4-0.4 130.4-182 0-182z" fill="#71C6B8" p-id="9677"></path><path d="M455.6 447.2h119c6.4 0 11.6 5.2 11.6 11.6 0 6.4-5.2 11.6-11.6 11.6h-119c-6.4 0-11.6-5.2-11.6-11.6 0-6.4 5.2-11.6 11.6-11.6z" fill="#FFFFFF" p-id="9678"></path><path d="M574.6 447.2H512v23.2h62.6c6.4 0 11.6-5.2 11.6-11.6 0-6.4-5.2-11.6-11.6-11.6z" fill="#EFEBE8" p-id="9679"></path><path d="M569.4 481.6v-9c0.2-12.8-10.2-23.2-22.8-23.4h-99c7.4-31 35-53 66.8-53.2 38 0 68.8 31.4 68.8 70.2 0 5.8-0.6 11.4-2 17-4.8 8.6-8.6 11.8-11.8-1.6z" fill="#E95030" p-id="9680"></path><path d="M514.4 396H512v53.2h34.6c12.6 0.2 23 10.6 22.8 23.4v9c3.2 13.4 7 10.2 11.8 1.6 1.4-5.6 2-11.2 2-17 0-38.8-30.8-70.2-68.8-70.2z" fill="#DD4026" p-id="9681"></path><path d="M576.2 486m-13.8 0a13.8 13.8 0 1 0 27.6 0 13.8 13.8 0 1 0-27.6 0Z" fill="#EFEBE8" p-id="9682"></path></svg>